<?xml version="1.0" standalone="no"?>
<!DOCTYPE svg PUBLIC "-//W3C//DTD SVG 20010904//EN"
 "http://www.w3.org/TR/2001/REC-SVG-20010904/DTD/svg10.dtd">
<svg version="1.0" xmlns="http://www.w3.org/2000/svg"
 width="207.000000pt" height="207.000000pt" viewBox="0 0 207.000000 207.000000"
 preserveAspectRatio="xMidYMid meet">
<metadata>
Created by potrace 1.14, written by Peter Selinger 2001-2017
</metadata>
<g transform="translate(0.000000,207.000000) scale(0.100000,-0.100000)"
fill="#000000" stroke="none">
<path d="M232 2049 c-46 -23 -72 -55 -90 -108 -17 -48 -16 -295 1 -308 16 -13
118 -16 136 -4 12 7 14 35 13 128 -2 158 -5 155 128 155 149 0 141 -4 138 81
l-3 72 -140 3 c-126 2 -144 0 -183 -19z"/>
<path d="M1493 2053 c-8 -14 -10 -96 -4 -135 0 -5 59 -8 130 -8 161 0 157 4
156 -145 -1 -72 3 -109 11 -116 7 -5 41 -9 76 -7 l63 3 0 156 c0 155 0 156
-28 192 -48 64 -73 71 -244 75 -139 3 -152 2 -160 -15z"/>
<path d="M900 1824 c-312 -65 -476 -234 -465 -480 7 -150 75 -261 210 -339 57
-34 114 -55 291 -111 251 -77 304 -112 304 -198 0 -47 -50 -98 -115 -116 -78
-22 -270 -17 -407 11 -29 6 -102 26 -162 46 -80 25 -111 32 -116 23 -4 -7 -8
-86 -8 -177 0 -163 0 -164 23 -173 33 -13 172 -38 247 -45 34 -4 79 -8 98 -11
51 -6 290 -5 325 1 17 3 59 10 95 16 126 22 259 87 334 165 80 82 116 175 116
299 0 99 -5 125 -37 198 -50 112 -192 202 -428 271 -190 56 -284 96 -318 134
-10 11 -21 39 -24 61 -5 36 -2 44 29 75 55 55 146 70 332 53 92 -9 155 -21
249 -48 46 -14 72 -17 80 -10 18 14 15 310 -3 321 -12 8 -88 20 -230 39 -98
13 -346 10 -420 -5z"/>
<path d="M146 438 c-16 -9 -19 -232 -5 -291 13 -49 61 -103 107 -118 44 -15
289 -20 315 -7 15 8 17 20 15 81 l-3 72 -133 1 c-105 0 -135 3 -143 15 -5 7
-9 67 -9 132 l0 117 -25 1 c-87 4 -108 3 -119 -3z"/>
<path d="M1773 437 c-4 -6 -6 -63 -5 -127 1 -82 -2 -122 -11 -134 -11 -15 -31
-18 -132 -19 l-120 -2 0 -75 0 -75 151 0 c146 0 152 1 191 27 65 43 77 80 81
246 3 92 0 147 -7 156 -13 15 -138 18 -148 3z"/>
</g>
</svg>
